<svg data-v-0dd9719b="" version="1.0" xmlns="http://www.w3.org/2000/svg" xmlns:xlink="http://www.w3.org/1999/xlink" preserveAspectRatio="xMidYMid meet" color-interpolation-filters="sRGB" style="margin: auto;" viewBox="80.53 104.18 178.94 41.64"> <g data-v-0dd9719b="" fill="#ffffff" class="basesvg" transform="translate(80.52999871969223,104.17999839782715)"><g data-gra="path-name" fill-rule="" class="tp-name"><g transform="scale(1)"><g><path d="M29.25-2.58C27.99-4.11 20.56-16.71 17.5-21.93L23.93-30.73C26.93-34.68 27.99-35.42 30.99-36.32L30.99-36.9 19.5-36.9 19.5-36.32C20.61-36.11 21.03-35.68 21.03-34.95 21.03-33.73 19.71-31.63 17.97-28.57L11.54-18.24 11.54-27.88C11.54-34.37 11.54-35.21 15.18-36.32L15.18-36.9 0.53-36.9 0.53-36.32C4.16-35.21 4.16-34.37 4.16-27.88L4.16-9.01C4.16-2.53 4.16-1.69 0.53-0.58L0.53 0 15.18 0 15.18-0.58C11.54-1.69 11.54-2.53 11.54-9.01L11.54-18.03 19.4-4.11C21.35-0.69 24.3 0.74 27.83 0.74 29.36 0.74 30.94 0.47 32.57 0L32.57-0.58C31.73-0.63 30.62-1.16 29.25-2.58ZM56.66-7.48C56.61-9.07 56.56-11.12 56.56-13.65 56.56-17.24 56.61-21.72 56.82-27.09 54.45-25.3 50.18-23.4 46.75-22.88L46.75-22.3C49.28-21.35 50.13-21.03 50.13-15.07 50.13-13.81 50.07-12.23 50.02-10.33 49.86-5.96 47.44-3.95 45.28-3.95 41.48-3.95 41.59-9.07 41.59-15.39 41.59-18.61 41.69-22.51 41.85-27.09 39.48-25.3 35.21-23.4 31.78-22.88L31.78-22.3C35.74-20.71 34.79-17.76 35.16-6.75 35.26-3 37.58 0.32 42.22 0.32 42.69 0.32 43.17 0.26 43.64 0.21 47.6-0.32 50.34-4.01 50.39-5.11 50.34-2.79 50.65 0.58 51.18 0.53L59.88-0.53 59.88-1.11C57.35-2.21 56.87-3 56.66-7.48ZM77.01-26.83C74.53-26.83 72-25.83 69.94-23.98L69.94-40.69C66.62-38.37 63.04-37 59.61-36.47L59.61-35.89C63.04-34.79 63.14-33.94 63.36-27.41 63.51-22.45 63.62-17.6 63.62-13.28 63.62-6.85 63.41-1.63 63.04 0.58 65.15 0.58 67.94-0.32 69.94-1.53 71.47-0.37 73.42 0.37 75.32 0.37 82.07 0.37 86.6-6.33 86.6-13.86 86.6-21.08 82.54-26.78 77.01-26.83ZM75.16-1.9C71.63-1.9 70.05-8.86 70.05-14.02 70.05-19.29 71.68-23.51 74.42-23.51 77.48-23.51 79.91-18.13 79.91-11.54 79.91-6.17 77.96-1.9 75.16-1.9ZM98.09-3.74L98.04-40.69C94.66-38.37 91.08-37 87.65-36.47L87.65-35.89C91.08-34.79 91.19-33.94 91.4-27.41 91.55-22.72 91.61-18.08 91.61-13.81 91.61-10.17 91.55-6.85 91.5-4.16 91.45-1.9 90.76-1.32 88.34-0.58L88.34 0 101.2 0 101.2-0.58C98.93-1.27 98.3-1.84 98.09-3.74ZM124.29-16.23C124.29-23.03 121.6-26.67 114.64-26.67 110.85-26.67 106.31-25.35 104.89-22.77L109-18.13C109-21.61 111.06-24.14 113.75-24.14 117.65-24.14 117.43-20.61 117.43-16.23L117.43-15.23C116.06-16.08 114.33-16.23 113.06-16.23 108.16-16.23 103.26-13.12 103.26-7.38 103.26-3.27 106.89 0.42 111.53 0.42 113.85 0.42 116.28-0.63 117.91-2.95 118.49-0.47 120.18 0.37 122.81 0.37 123.92 0.37 125.18 0.21 126.61 0L126.61-0.53C124.5-1.16 124.29-2.48 124.29-9.28ZM117.59-5.27C116.75-3.69 115.48-2.74 113.8-2.74 111.58-2.74 110.32-4.43 110.32-9.07 110.32-13.6 112.22-14.02 113.96-14.02 115.01-14.02 116.43-13.76 117.43-12.54 117.43-9.65 117.43-7.17 117.59-5.27ZM151.7-9.07L151.64-40.69C148.32-38.37 144.74-37 141.31-36.47L141.31-35.89C144.74-34.79 145.05-34.47 145.05-27.41L145.05-25.14C143.68-26.25 142.05-26.83 140.2-26.83 134.72-26.83 128.45-21.77 128.45-12.76 128.45-5.43 132.98 0.32 138.57 0.37 141.1 0.37 143.58-0.69 145.53-2.58 145.69-0.9 145.95-0.16 146.27 0.53L154.96-0.53 154.96-1.11C152.17-2.32 151.91-3.16 151.7-9.07ZM140.78-2.95C137.73-2.95 135.3-8.33 135.3-14.92 135.3-20.29 137.25-24.56 140.05-24.56 143.58-24.56 145.16-17.66 145.16-12.39 145.16-7.17 143.53-2.95 140.78-2.95ZM164.61-13.18L164.61-11.81C165.56-11.44 168.35-11.23 171.41-11.23 174.31-11.23 177.52-11.44 179.42-12.02 179.47-12.7 179.47-13.34 179.47-13.92 179.47-21.77 175.47-26.93 168.61-26.93 161.24-26.93 155.86-20.24 155.86-12.18 155.86-4.59 160.66 0.95 168.14 0.95 172.88 0.95 176.1-1.79 177.36-5.32L176.15-6.59C174.47-3.43 172.25-2.37 170.3-2.37 165.61-2.37 163.29-8.17 163.29-14.18 163.29-19.61 165.24-23.98 168.35-23.98 170.88-23.98 172.15-20.45 172.15-16.66 172.15-15.81 172.09-15.02 171.99-14.23 171.46-13.39 169.04-13.12 166.56-13.12 165.82-13.12 165.14-13.12 164.61-13.18Z" transform="translate(-0.5299999713897705, 40.689998626708984)"></path></g> <!----> <!----> <!----> <!----> <!----> <!----> <!----></g></g> <!----></g><defs v-gra="od"></defs></svg>